<svg xmlns="http://www.w3.org/2000/svg" x="0px" y="0px" width="198.3px" height="250px">
<path fill="#00703C" d="M106.2,132.9c-4,29.7-4.2,59.5-3.8,89c-15.9-26.7-24.1-56.3-22.1-87.8l-4.9,0.2c-1,0.1-1.6-0.5-1.8-1.3  l-9.3,0.4c-1,0.1-1.6-0.7-1.4-1.5l7.7-23c0.1-0.8,1-1.5,1.9-1.5l4.9,0.5c0.4-0.8,1.3-1.4,2.2-1.4l4.8,0.2  c7.7-31.4,25-61.1,49.2-87.8c-9.6,29.5-18.5,59.3-23.7,89l6.8,2.8l64.8-3.2c1-0.1,1.8-0.7,2-1.6c4.1-23.5,9.3-49.7,14.2-73  c0.2-1.2,0-2.2-0.7-3.2C191,22.5,185,15,178.9,7.4c-0.7-1-1.8-1.5-3.2-1.5C138.6,4,101.4,2.3,64.2,0.5c-1.3-0.1-2.5,0.4-3.6,1.3  C51.2,9,41.8,16.5,32.5,24c-1.2,1-1.8,2.1-2.1,3.3C17.1,92,7.1,157.5,0.4,223.4c-0.1,1.3,0.2,2.4,1.1,3.3c7,7.4,14,14.9,21,22.2  c0.7,0.8,3.2,0.6,3.2,0.6h107.6c0,0,2.7-0.6,3.6-1.5c8.4-8,21.4-21.1,29.9-28.8c1-1,1.6-4.3,1.8-5.5c1.8-16.5,3.9-33,6.2-49.4  c0.3-2,0.6-4,0.8-6c1.1-7.7,2.4-16,3.7-23.7c0.3-1.6-1-3-2.7-3.1l-62.8-1.1L106.2,132.9z"/>
</svg>
