<svg id="svg" xmlns="http://www.w3.org/2000/svg" xmlns:xlink="http://www.w3.org/1999/xlink" width="400" height="192.75053304904054" viewBox="0, 0, 400,192.75053304904054"><g id="svgg">
<path id="path0" d="M46.132 0.324 C 45.210 0.801,25.244 17.031,23.790 18.485 C 22.814 19.462,22.633 20.037,21.528 25.706 C 12.528 71.882,5.643 118.293,0.742 165.814 C -0.187 174.824,-0.432 173.740,3.518 178.083 C 9.444 184.599,16.454 192.112,16.899 192.424 C 17.635 192.939,99.628 192.919,101.188 192.403 C 102.737 191.890,125.449 169.131,125.807 167.733 C 125.932 167.244,126.074 166.725,126.123 166.578 C 126.172 166.432,126.602 162.834,127.079 158.583 C 128.978 141.642,131.251 124.144,133.163 111.743 C 134.544 102.791,134.556 102.575,133.701 101.856 C 132.952 101.225,133.488 101.245,103.889 100.724 L 85.069 100.393 82.193 101.399 C 80.612 101.952,79.318 102.474,79.318 102.558 C 79.318 102.643,79.079 104.813,78.788 107.380 C 77.141 121.904,76.506 135.394,76.484 156.348 C 76.476 164.178,76.401 170.511,76.317 170.420 C 75.923 169.995,72.747 163.864,71.303 160.740 C 63.621 144.126,60.066 128.095,60.066 110.075 L 60.066 103.412 57.977 103.412 C 56.087 103.412,55.857 103.368,55.570 102.957 C 55.258 102.513,55.172 102.506,51.607 102.659 C 47.813 102.821,47.335 102.741,47.335 101.942 C 47.335 100.964,53.254 83.490,53.682 83.206 C 54.053 82.960,54.472 82.949,56.086 83.145 L 58.040 83.383 58.569 82.813 C 59.090 82.251,59.127 82.244,61.209 82.359 L 63.321 82.475 63.551 81.590 C 68.760 61.537,77.383 43.985,90.733 26.254 C 94.409 21.372,100.206 14.277,99.729 15.245 C 99.326 16.062,93.642 35.118,91.366 43.284 C 87.787 56.124,82.292 80.277,82.304 83.115 C 82.305 83.373,83.015 83.771,84.810 84.519 L 87.313 85.563 111.727 84.347 C 125.155 83.678,136.396 83.032,136.709 82.912 C 137.512 82.602,137.547 82.463,139.127 73.348 C 140.995 62.567,143.608 48.703,146.276 35.409 C 147.648 28.570,148.389 24.416,148.310 23.999 C 148.234 23.589,146.893 21.699,144.746 18.974 C 142.853 16.571,139.588 12.382,137.490 9.663 C 133.022 3.874,133.429 4.148,129.012 3.957 C 127.437 3.888,109.782 3.022,89.780 2.031 C 44.529 -0.210,46.978 -0.115,46.132 0.324 M260.993 0.545 C 257.341 1.553,257.624 0.587,251.595 32.623 C 248.887 47.011,248.861 47.302,250.138 48.925 C 251.209 50.287,249.868 50.203,272.388 50.320 C 295.073 50.438,293.846 50.357,294.879 51.807 C 295.796 53.095,295.771 53.510,294.215 62.703 C 287.282 103.666,279.812 157.134,276.850 186.994 C 276.586 189.654,277.831 191.740,280.010 192.288 C 281.635 192.698,318.989 192.638,320.377 192.224 C 323.582 191.267,323.866 190.488,325.159 179.087 C 329.324 142.347,334.056 108.529,340.311 70.789 C 343.435 51.941,343.276 52.472,346.221 51.026 L 347.441 50.426 368.017 50.320 C 390.760 50.202,389.226 50.302,390.909 48.825 C 392.537 47.395,392.627 47.093,394.355 37.283 C 395.230 32.316,396.868 23.285,397.996 17.216 C 400.089 5.947,400.140 5.463,399.335 4.713 C 398.740 4.159,398.090 4.120,384.755 3.841 C 372.225 3.579,362.808 3.300,330.810 2.240 C 302.394 1.298,289.937 0.915,279.104 0.649 C 274.355 0.532,268.598 0.389,266.311 0.330 C 263.013 0.246,261.914 0.290,260.993 0.545 M170.701 0.650 C 167.854 1.368,167.687 1.801,165.048 15.245 C 153.946 71.813,145.869 122.970,139.329 178.145 C 137.910 190.119,137.962 190.695,140.566 191.783 C 141.888 192.335,259.871 192.267,261.087 191.713 C 263.712 190.518,263.959 189.734,265.242 178.529 C 265.844 173.275,266.770 165.474,267.300 161.194 C 268.788 149.170,268.772 148.684,266.833 147.205 L 266.025 146.588 230.187 146.482 C 191.565 146.367,193.801 146.433,192.521 145.374 C 190.898 144.031,190.896 143.789,192.443 132.220 C 197.501 94.371,203.386 57.590,209.947 22.814 C 211.064 16.892,212.215 10.782,212.505 9.237 C 213.413 4.387,213.215 4.153,207.710 3.594 C 188.373 1.630,171.986 0.327,170.701 0.650 " stroke="none" fill="#000000" fill-rule="evenodd"></path>
</g></svg>
